<svg width="17" height="13" viewBox="0 0 17 13" fill="none" xmlns="http://www.w3.org/2000/svg">
<path fill-rule="evenodd" clip-rule="evenodd" d="M7.36872 0.631282C7.71043 0.97299 7.71043 1.52701 7.36872 1.86872L3.61244 5.625H15.5C15.9832 5.625 16.375 6.01675 16.375 6.5C16.375 6.98325 15.9832 7.375 15.5 7.375H3.61244L7.36872 11.1313C7.71043 11.473 7.71043 12.027 7.36872 12.3687C7.02701 12.7104 6.47299 12.7104 6.13128 12.3687L0.881735 7.11917M0.881734 5.88083L6.13128 0.631282C6.47299 0.289573 7.02701 0.289573 7.36872 0.631282M0.881734 5.88083C0.880964 5.8816 0.880196 5.88237 0.879429 5.88314C0.796457 5.9666 0.733779 6.06262 0.691394 6.16506C0.648612 6.26823 0.625 6.38136 0.625 6.5C0.625 6.61864 0.648612 6.73177 0.691394 6.83494C0.733779 6.93738 0.796457 7.0334 0.879429 7.11686" fill="black"/>
</svg>
