<svg width="33" height="36" viewBox="0 0 33 36" fill="none" xmlns="http://www.w3.org/2000/svg">
<path d="M25.2656 8.76758V17.7201L14.5664 35H0.966797C0.425326 35 0 34.5745 0 34.0332V5.86719C0 3.74017 1.7403 2 3.86719 2H13.4063V7.80078H24.2988C24.8403 7.80078 25.2656 8.22611 25.2656 8.76758Z" fill="#CAE8F9"/>
<path d="M25.2656 8.76758V17.7201L14.5664 35V7.80078H24.2988C24.8403 7.80078 25.2656 8.22611 25.2656 8.76758Z" fill="#A4D9F5"/>
<path d="M9.66797 16.502C9.66797 17.0363 9.23555 17.4688 8.70117 17.4688H4.83398C4.2996 17.4688 3.86719 17.0363 3.86719 16.502V12.6348C3.86719 12.1004 4.2996 11.668 4.83398 11.668H8.70117C9.23555 11.668 9.66797 12.1004 9.66797 12.6348V16.502Z" fill="#80C6F0"/>
<path d="M8.70117 25.2031H4.83398C4.2996 25.2031 3.86719 24.7707 3.86719 24.2363V20.3691C3.86719 19.8348 4.2996 19.4023 4.83398 19.4023H8.70117C9.23555 19.4023 9.66797 19.8348 9.66797 20.3691V24.2363C9.66797 24.7707 9.23555 25.2031 8.70117 25.2031Z" fill="#80C6F0"/>
<path d="M21.3984 12.6348C21.3984 13.1761 20.9731 13.6016 20.4316 13.6016H12.6328C12.0913 13.6016 11.666 13.1761 11.666 12.6348C11.666 12.0933 12.0913 11.668 12.6328 11.668H20.4316C20.9731 11.668 21.3984 12.0933 21.3984 12.6348Z" fill="#80C6F0"/>
<path d="M29.1328 17.4687C29.1328 18.4935 28.7267 19.4796 27.9919 20.195C27.2765 20.9298 26.2905 21.3359 25.2656 21.3359L22.3652 20.9685L18.382 20.4851C17.8406 19.9437 17.5312 19.2089 17.5312 18.4355C17.5312 17.662 17.8406 16.9272 18.382 16.3859C19.2521 15.4964 20.6443 15.361 21.7465 15.9025C21.8818 15.5737 22.0751 15.245 22.3652 14.955C22.404 14.8776 22.4619 14.8197 22.5393 14.7423C23.9895 13.2728 26.5417 13.2728 27.9919 14.7423C28.7267 15.4577 29.1328 16.4438 29.1328 17.4687Z" fill="#FE9923"/>
<path d="M21.3984 12.6348C21.3984 13.1761 20.9731 13.6016 20.4316 13.6016H14.5664V11.668H20.4316C20.9731 11.668 21.3984 12.0933 21.3984 12.6348Z" fill="#4DBBEB"/>
<path d="M29.1328 5.86719C29.1328 7.99408 27.3925 9.73438 25.2656 9.73438H3.86719C5.99408 9.73438 7.73438 7.99408 7.73438 5.86719C7.73438 3.74017 5.99408 2 3.86719 2H25.2656C27.3925 2 29.1328 3.74017 29.1328 5.86719Z" fill="#80C6F0"/>
<path d="M25.2656 21.3359L22.3652 20.9685V14.955C22.404 14.8776 22.4619 14.8197 22.5393 14.7423C23.9895 13.2728 26.5417 13.2728 27.9919 14.7423C28.7267 15.4577 29.1328 16.4438 29.1328 17.4687C29.1328 18.4935 28.7267 19.4796 27.9919 20.195C27.2765 20.9298 26.2905 21.3359 25.2656 21.3359Z" fill="#FE8821"/>
<path d="M30.0996 23.2695H14.5664C14.0249 23.2695 13.5996 23.6949 13.5996 24.2363V34.0332C13.5996 34.5745 14.0249 35 14.5664 35H30.0996C30.6411 35 31.0664 34.5745 31.0664 34.0332V24.2363C31.0664 23.6949 30.6411 23.2695 30.0996 23.2695Z" fill="#FC1A40"/>
<path d="M29.1328 5.86719C29.1328 7.99408 27.3925 9.73438 25.2656 9.73438H14.5664V2H25.2656C27.3925 2 29.1328 3.74017 29.1328 5.86719Z" fill="#4DBBEB"/>
<path d="M31.0664 24.2363V34.0332C31.0664 34.5745 30.6411 35 30.0996 35H22.3652V23.2695H30.0996C30.6411 23.2695 31.0664 23.6949 31.0664 24.2363Z" fill="#C60034"/>
<path d="M32.0332 19.4023H12.6328C12.0913 19.4023 11.666 19.8277 11.666 20.3691V24.2363C11.666 24.7777 12.0913 25.2031 12.6328 25.2031H32.0332C32.5747 25.2031 33 24.7777 33 24.2363V20.3691C33 19.8277 32.5747 19.4023 32.0332 19.4023Z" fill="#FF3E75"/>
<path d="M19.4648 19.4023C19.4648 36.5531 19.4648 7.90874 19.4648 35H25.2656C25.2656 17.0934 25.2656 37.4642 25.2656 19.4023H19.4648Z" fill="#FCBF29"/>
<path d="M33 20.3691V24.2363C33 24.7777 32.5747 25.2031 32.0332 25.2031H22.3652V19.4023H32.0332C32.5747 19.4023 33 19.8277 33 20.3691Z" fill="#FC1A40"/>
<path d="M22.3652 19.4023C22.3652 36.5531 22.3652 7.90874 22.3652 35H25.2656C25.2656 17.0934 25.2656 37.4642 25.2656 19.4023H22.3652Z" fill="#FE9923"/>
</svg>
