<svg width="33" height="36" viewBox="0 0 33 36" fill="none" xmlns="http://www.w3.org/2000/svg">
<path d="M26.7762 18.3531L23.3526 17.1155C23.2469 17.0736 23.1201 17.0526 22.9934 17.0526H1.05668C0.464869 17.0526 0 17.514 0 18.1014V32.8537C0 34.5946 1.41588 36 3.17004 36H24.3036C26.0578 36 27.4737 34.5946 27.4737 32.8537V19.3388C27.4737 18.8984 27.1989 18.4999 26.7762 18.3531Z" fill="#FC1A40"/>
<path d="M27.3469 6.94586C26.9808 5.47554 25.8823 4.32493 24.3962 3.85606C22.9317 3.4085 21.3594 3.7282 20.2179 4.75096L17.7195 6.92455L17.2242 3.66435C16.9873 2.17272 16.0181 0.91542 14.5752 0.31884C14.2952 0.212224 14.0152 0.126988 13.7352 0.0843705C12.5506 -0.150028 11.323 0.105679 10.3322 0.830255C9.01841 1.76785 8.35082 3.34471 8.56612 4.92151C8.80311 6.49837 9.87999 7.84083 11.4091 8.37356L13.7352 9.20461L16.5997 10.2487C16.6212 10.2487 16.6212 10.2487 16.6212 10.2487L21.5964 12.0599C22.0917 12.2305 22.6086 12.3158 23.104 12.3158C24.1594 12.3158 25.1932 11.9321 26.0116 11.2077C27.2176 10.1422 27.7345 8.50134 27.3469 6.94586Z" fill="#FE9923"/>
<path d="M32.0101 16.0841L30.5402 20.1501C30.3672 20.5826 29.9565 20.8422 29.5242 20.8422C29.3945 20.8422 29.2648 20.8205 29.1568 20.7774L17.9812 16.7114L16.9653 13.3591L14.2633 13.9646L11.8856 14.5053L0.709925 10.4393C0.147905 10.2231 -0.133033 9.59579 0.0614406 9.0551L1.55296 4.98925C1.83397 4.1674 2.43929 3.51843 3.21747 3.15083C3.99565 2.78323 4.88184 2.73991 5.70326 3.04269L14.2633 6.15707L14.847 6.37328C14.847 6.37328 17.1815 10.6124 17.2464 10.6124C17.2897 10.6124 18.2192 10.0933 19.127 9.59579C20.0347 9.09836 20.9426 8.57937 20.9426 8.57937L30.0646 11.91C30.886 12.2127 31.5345 12.8184 31.9019 13.597C32.2695 14.3755 32.3127 15.2623 32.0101 16.0841Z" fill="#FF3E75"/>
<path d="M32.0095 16.8782L30.5353 21.0751C30.3618 21.5216 29.9499 21.7895 29.5163 21.7895C29.3862 21.7895 29.2562 21.7672 29.1478 21.7226L17.9394 17.5257L16.9205 14.0655L14.2105 14.6905V6.63159L14.796 6.85476C14.796 6.85476 17.1373 11.2303 17.2024 11.2303C17.2458 11.2303 18.178 10.6946 19.0885 10.181C19.9989 9.66758 20.9096 9.13188 20.9096 9.13188L30.0583 12.5697C30.8821 12.8822 31.5325 13.5074 31.901 14.311C32.2697 15.1146 32.313 16.03 32.0095 16.8782Z" fill="#FC1A40"/>
<path d="M10.4507 17.3507V35.9999H16.5848V17.3507L10.4507 17.3507Z" fill="#FCBF29"/>
<path d="M14.0698 7.60632L13.5177 9.13404L11.2686 15.3688L13.5177 16.1947L16.0735 17.1237L17.0344 17.4746L19.8358 9.71216L14.0698 7.60632Z" fill="#FCBF29"/>
</svg>
