<svg width="37" height="37" viewBox="0 0 37 37" fill="none" xmlns="http://www.w3.org/2000/svg">
<path d="M32.8579 16.4372L27.4683 21.8268L15.1711 9.52971L23.3372 1.36365L32.847 10.8735L32.4119 11.5271C31.5553 12.821 31.5585 14.4846 32.4202 15.7817L32.8579 16.4372Z" fill="#BF6015"/>
<path d="M32.8579 16.4372L27.4683 21.8268L21.3197 15.6783L29.4858 7.51221L32.847 10.8735L32.4119 11.5271C31.5553 12.821 31.5586 14.4846 32.4202 15.7817L32.8579 16.4372Z" fill="#994C10"/>
<path fill-rule="evenodd" clip-rule="evenodd" d="M33.5848 11.6113C32.4552 12.7409 32.4587 14.5682 33.5928 15.7023C33.9754 16.085 33.9766 16.6849 33.5955 17.066L28.832 21.8295L27.0731 21.9489L27.4656 20.4632L30.1876 17.7412L27.4549 15.0085L24.7329 17.7305L23.0299 18.5316L23.3666 16.3642L26.0886 13.6421L23.3559 10.9094L20.6339 13.6315L18.8078 14.2551L19.2675 12.2651L21.9895 9.54309L19.2568 6.81039L16.5348 9.53241L14.8311 9.979L15.1685 8.16607L22.654 0.680506C23.0352 0.299377 23.6351 0.300551 24.0177 0.683174L33.5821 10.2476C33.9648 10.6302 33.9659 11.2302 33.5848 11.6113ZM20.6178 5.44938L23.3505 8.18208L26.0726 5.46006L23.3399 2.72736L20.6178 5.44938ZM27.4496 12.2811L24.7169 9.54843L27.4389 6.8264L30.1716 9.5591L27.4496 12.2811ZM31.538 10.9254L28.8159 13.6475L31.5486 16.3802L31.6167 16.3121C30.5499 14.7009 30.5458 12.6008 31.6063 10.9938L31.538 10.9254Z" fill="#994C0F"/>
<path fill-rule="evenodd" clip-rule="evenodd" d="M33.5848 11.6113C32.4552 12.7409 32.4587 14.5683 33.5928 15.7024C33.9755 16.085 33.9766 16.6849 33.5955 17.0661L28.832 21.8296L27.0731 21.9489L27.4656 20.4632L30.1876 17.7412L27.4549 15.0085L24.7329 17.7306L23.0299 18.5317L23.3666 16.3642L26.0886 13.6422L24.7222 12.2758L26.0833 10.9148L27.4496 12.2812L30.1716 9.55915L28.8053 8.1928L30.1663 6.83179L33.5822 10.2477C33.9648 10.6303 33.966 11.2302 33.5848 11.6113ZM28.816 13.6475L31.5487 16.3802L31.6167 16.3122C30.5499 14.701 30.5458 12.6008 31.6063 10.9938L31.538 10.9255L28.816 13.6475Z" fill="#713708"/>
<path d="M15.1685 8.16602L2.14812 21.1864C1.01852 22.3159 1.02201 24.1433 2.15612 25.2774L11.7206 34.8418C12.8547 35.9759 14.682 35.9794 15.8116 34.8498L28.8319 21.8295L15.1685 8.16602Z" fill="#FF3E75"/>
<path d="M28.832 21.8295L15.8116 34.8499C14.682 35.9795 12.8547 35.976 11.7206 34.8419L6.93836 30.0597L22.0002 14.9978L28.832 21.8295Z" fill="#FC1A40"/>
<path d="M19.5341 20.7159C18.8235 20.0054 18.005 19.7584 17.2549 19.7432L17.0912 19.7429C17.1033 18.9384 16.8697 18.0515 16.1182 17.3C14.7792 15.9611 12.6791 15.9569 11.3453 17.2907C9.92991 18.7061 10.1794 20.7793 10.5532 23.6575C10.6087 24.1485 10.678 24.6805 10.7336 25.226C10.7749 25.4578 10.8708 25.6627 11.0211 25.8129C11.0484 25.8403 11.0757 25.8676 11.1167 25.8813C11.2533 25.9907 11.417 26.0729 11.5944 26.0868C12.1536 26.156 12.6719 26.2116 13.1629 26.2672C16.041 26.641 18.128 26.9042 19.5434 25.4887C20.8772 24.155 20.873 22.0549 19.5341 20.7159Z" fill="#FEDBAB"/>
<path d="M19.5434 25.4888C18.128 26.9042 16.0411 26.641 13.1629 26.2672C12.6719 26.2117 12.1536 26.1561 11.5944 26.0868C11.417 26.0729 11.2533 25.9908 11.1167 25.8814L17.2549 19.7432C18.005 19.7583 18.8235 20.0054 19.5341 20.7159C20.873 22.0549 20.8772 24.155 19.5434 25.4888Z" fill="#FEC478"/>
</svg>
