<svg width="33" height="36" viewBox="0 0 33 36" fill="none" xmlns="http://www.w3.org/2000/svg">
<path d="M32.7647 28.6172V32.8359C32.7647 34.5866 31.346 36 29.5882 36H4.17647C2.41875 36 1 34.5866 1 32.8359V28.6172L6.08242 27.5625H31.0707C32.0236 28.1741 32.7647 28.6172 32.7647 28.6172Z" fill="#FEA832"/>
<path d="M32.7647 28.6172V32.8359C32.7647 34.5866 31.346 36 29.5882 36H16.8824V27.5625H31.0706C32.0236 28.1741 32.7647 28.6172 32.7647 28.6172Z" fill="#FE9923"/>
<path d="M32.7647 14.8359L31.134 16.2491L32.7647 16.9453V28.6172C32.7647 30.3679 31.346 31.7812 29.5882 31.7812H4.17647C2.41875 31.7812 1 30.3679 1 28.6172V16.9453L2.5036 15.9327L1 14.8359V3.16406C1 1.41321 2.41875 0 4.17647 0H29.5882C31.346 0 32.7647 1.41321 32.7647 3.16406V14.8359Z" fill="#FEDB41"/>
<path d="M32.7647 14.8359L31.134 16.2491L32.7647 16.9453V28.6172C32.7647 30.3679 31.346 31.7812 29.5882 31.7812H16.8824V0H29.5882C31.346 0 32.7647 1.41321 32.7647 3.16406V14.8359Z" fill="#FCBF29"/>
<path fill-rule="evenodd" clip-rule="evenodd" d="M32.7647 14.8359H25.3318C25.9882 13.9499 26.4118 12.8531 26.4118 11.6719C26.4118 8.76094 24.04 6.39844 21.1176 6.39844C19.9106 6.39844 18.8305 6.82031 17.9412 7.49524V0H15.8235V7.49524C14.9342 6.82031 13.8541 6.39844 12.6471 6.39844C9.72471 6.39844 7.35294 8.76094 7.35294 11.6719C7.35294 12.8531 7.77647 13.9499 8.43294 14.8359H1V16.9453H13.6C13.1129 19.35 10.9741 21.1641 8.41176 21.1641C7.81875 21.1641 7.35294 21.6281 7.35294 22.2188C7.35294 22.8093 7.81875 23.2734 8.41176 23.2734C12.1388 23.2734 15.1882 20.5102 15.7176 16.9453H15.8235V31.7812H17.9412V16.9453H18.0471C18.5765 20.5102 21.6259 23.2734 25.3529 23.2734C25.946 23.2734 26.4118 22.8093 26.4118 22.2188C26.4118 21.6281 25.946 21.1641 25.3529 21.1641C22.7905 21.1641 20.6518 19.35 20.1647 16.9453H32.7647V14.8359ZM15.8235 14.8359H12.6471C10.8893 14.8359 9.47059 13.4226 9.47059 11.6719C9.47059 9.92102 10.8893 8.50781 12.6471 8.50781C14.4048 8.50781 15.8235 9.92102 15.8235 11.6719V14.8359ZM17.9412 14.8359H21.1176C22.8754 14.8359 24.2941 13.4226 24.2941 11.6719C24.2941 9.92102 22.8754 8.50781 21.1176 8.50781C19.3599 8.50781 17.9412 9.92102 17.9412 11.6719V14.8359Z" fill="#FC1A40"/>
<path fill-rule="evenodd" clip-rule="evenodd" d="M25.3318 14.8359H32.7647V16.9453H20.1647C20.6518 19.35 22.7905 21.1641 25.3529 21.1641C25.946 21.1641 26.4118 21.6281 26.4118 22.2188C26.4118 22.8093 25.946 23.2734 25.3529 23.2734C21.6259 23.2734 18.5765 20.5102 18.0471 16.9453H17.9412V31.7812H16.8824V0H17.9412V7.49524C18.8305 6.82031 19.9106 6.39844 21.1176 6.39844C24.04 6.39844 26.4118 8.76094 26.4118 11.6719C26.4118 12.8531 25.9882 13.9499 25.3318 14.8359ZM17.9412 14.8359H21.1176C22.8754 14.8359 24.2941 13.4226 24.2941 11.6719C24.2941 9.92102 22.8754 8.50781 21.1176 8.50781C19.3599 8.50781 17.9412 9.92102 17.9412 11.6719V14.8359Z" fill="#C60034"/>
</svg>
