<svg width="295" height="284" viewBox="0 0 295 284" fill="none" xmlns="http://www.w3.org/2000/svg">
<path fill-rule="evenodd" clip-rule="evenodd" d="M252.168 126.338C252.164 126.338 252.16 126.339 252.155 126.339C252.04 121.253 247.888 117.165 242.771 117.165C238.633 117.165 235.126 119.843 233.874 123.557C232.77 122.785 231.428 122.329 229.978 122.329C226.216 122.329 223.168 125.376 223.168 129.134C223.168 132.893 226.216 135.941 229.978 135.941H252.168C254.822 135.941 256.973 133.791 256.973 131.139C256.973 128.488 254.822 126.338 252.168 126.338Z" fill="url(#paint0_linear)"/>
<path fill-rule="evenodd" clip-rule="evenodd" d="M36.8282 44.686C36.8247 44.686 36.8219 44.6867 36.8184 44.6867C36.7334 40.9359 33.6705 37.9197 29.8968 37.9197C26.8444 37.9197 24.2582 39.8954 23.3348 42.6344C22.5201 42.0654 21.5305 41.7284 20.4608 41.7284C17.6864 41.7284 15.4375 43.9757 15.4375 46.7487C15.4375 49.5211 17.6864 51.7684 20.4608 51.7684H36.8282C38.7851 51.7684 40.3719 50.1834 40.3719 48.2272C40.3719 46.2717 38.7851 44.686 36.8282 44.686Z" fill="url(#paint1_linear)"/>
<path fill-rule="evenodd" clip-rule="evenodd" d="M224.613 14.7316C224.62 14.7316 224.627 14.7327 224.634 14.7327C224.815 6.6889 231.385 0.22052 239.478 0.22052C246.025 0.22052 251.571 4.45734 253.552 10.3324C255.298 9.11103 257.421 8.38991 259.715 8.38991C265.665 8.38991 270.488 13.2093 270.488 19.1547C270.488 25.1012 265.665 29.9205 259.715 29.9205H224.613C220.416 29.9205 217.013 26.5207 217.013 22.3261C217.013 18.1326 220.416 14.7316 224.613 14.7316Z" fill="url(#paint2_linear)"/>
<path fill-rule="evenodd" clip-rule="evenodd" d="M62.5026 79.0927C62.5095 79.0927 62.5155 79.0935 62.5223 79.0935C62.6905 71.6236 68.7907 65.6171 76.3069 65.6171C82.3874 65.6171 87.5376 69.5507 89.3778 75.0069C90.9998 73.8728 92.9703 73.2028 95.1007 73.2028C100.627 73.2028 105.106 77.6785 105.106 83.2005C105.106 88.7218 100.627 93.1983 95.1007 93.1983H62.5026C58.6048 93.1983 55.4448 90.0406 55.4448 86.1455C55.4448 82.2504 58.6048 79.0927 62.5026 79.0927Z" fill="url(#paint3_linear)"/>
<path fill-rule="evenodd" clip-rule="evenodd" d="M33.9023 231.311L38.3682 224.108L42.8217 231.311H33.9023Z" fill="#557AC7"/>
<path fill-rule="evenodd" clip-rule="evenodd" d="M20.8231 281.041H104.685V231.801H20.8231V281.041Z" fill="url(#paint4_linear)"/>
<path fill-rule="evenodd" clip-rule="evenodd" d="M20.8231 281.041H45.443V231.801H20.8231V281.041Z" fill="#BA7F4E"/>
<path fill-rule="evenodd" clip-rule="evenodd" d="M74.1285 242.848L74.2622 247.189H67.7548V231.801H79.2953V242.847L74.1285 242.848Z" fill="#F5CE42"/>
<path fill-rule="evenodd" clip-rule="evenodd" d="M38.5187 281.041H26.9781V231.801H38.5187V267.149V281.041Z" fill="#F5CE42"/>
<path fill-rule="evenodd" clip-rule="evenodd" d="M79.2953 242.573L74.7985 246.419L74.6791 242.573L79.2953 242.573Z" fill="#FBE497"/>
<path fill-rule="evenodd" clip-rule="evenodd" d="M80.8341 274.117H97.7603V261.807H80.8341V274.117Z" fill="white"/>
<path fill-rule="evenodd" clip-rule="evenodd" d="M83.1422 269.5H96.2215V267.962H83.1422V269.5Z" fill="#12171E"/>
<path fill-rule="evenodd" clip-rule="evenodd" d="M91.6052 271.809H96.2215V270.27H91.6052V271.809Z" fill="#12171E"/>
<path fill-rule="evenodd" clip-rule="evenodd" d="M293.95 277.964V127.749H271.149V177.22H259.858V203.191H248.534L233.313 187.985V175.458H217.427V155.666H186.294V176.585H159.638V169.325H125.181V194.237H104.972V183.869H84.7179V143.881H66.7653V155.735L56.3037 156.007V89.4675L28.1363 113.985V177.885H16.6072V158.632H0.0500488V277.964H293.95Z" fill="url(#paint5_linear)"/>
<path fill-rule="evenodd" clip-rule="evenodd" d="M70.2422 204.249H67.0776V190.755C67.0776 186.581 63.6723 183.185 59.4877 183.185C55.3026 183.185 51.8979 186.581 51.8979 190.755V204.249H48.7333V190.755C48.7333 184.84 53.5576 180.029 59.4877 180.029C65.4179 180.029 70.2422 184.84 70.2422 190.755V204.249Z" fill="url(#paint6_linear)"/>
<path fill-rule="evenodd" clip-rule="evenodd" d="M70.7426 231.554H39.7399L42.9392 195.11H67.5432L70.7426 231.554Z" fill="#557AC7"/>
<path fill-rule="evenodd" clip-rule="evenodd" d="M79.6618 231.554H48.6591L51.8584 195.11H76.4624L79.6618 231.554Z" fill="url(#paint7_linear)"/>
<path fill-rule="evenodd" clip-rule="evenodd" d="M44.2059 224.35L47.0073 195.11H42.9393L39.74 231.553L44.2059 224.35Z" fill="#4062A8"/>
<path fill-rule="evenodd" clip-rule="evenodd" d="M98.1795 47.9215C90.2988 47.9215 83.1421 55.079 83.1421 62.9581V266.294C83.1421 274.174 90.2988 281.331 98.1795 281.331H197.128C205.007 281.331 212.165 274.174 212.165 266.294V62.9581C212.165 55.079 205.007 47.9215 197.128 47.9215H98.1795Z" fill="#393939"/>
<path fill-rule="evenodd" clip-rule="evenodd" d="M100.576 52.5378C93.0717 52.5378 87.7584 57.8518 87.7584 65.355V263.937C87.7584 271.441 93.0717 276.755 100.576 276.755H194.731C202.235 276.755 207.549 271.441 207.549 263.937V65.355C207.549 57.8518 202.235 52.5378 194.731 52.5378H100.576Z" fill="white"/>
<path fill-rule="evenodd" clip-rule="evenodd" d="M97.7603 78.3117C97.7603 76.8245 98.9659 75.6189 100.453 75.6189H137.383C138.87 75.6189 140.076 76.8245 140.076 78.3117C140.076 79.7989 138.87 81.0045 137.383 81.0045H100.453C98.9659 81.0045 97.7603 79.7989 97.7603 78.3117Z" fill="#D7D7D7"/>
<path fill-rule="evenodd" clip-rule="evenodd" d="M97.7603 156.788C97.7603 155.3 98.9659 154.095 100.453 154.095H137.383C138.87 154.095 140.076 155.3 140.076 156.788C140.076 158.275 138.87 159.48 137.383 159.48H100.453C98.9659 159.48 97.7603 158.275 97.7603 156.788Z" fill="#D7D7D7"/>
<path fill-rule="evenodd" clip-rule="evenodd" d="M97.7603 230.647C97.7603 229.16 98.9659 227.954 100.453 227.954H137.383C138.87 227.954 140.076 229.16 140.076 230.647C140.076 232.134 138.87 233.34 137.383 233.34H100.453C98.9659 233.34 97.7603 232.134 97.7603 230.647Z" fill="#D7D7D7"/>
<g filter="url(#filter0_d)">
<path fill-rule="evenodd" clip-rule="evenodd" d="M93.9133 89.2579C93.9133 88.5239 94.5084 87.9288 95.2424 87.9288H200.296C201.03 87.9288 201.625 88.5239 201.625 89.2579V134.32C201.625 135.054 201.03 135.649 200.296 135.649H95.2424C94.5084 135.649 93.9133 135.054 93.9133 134.32V89.2579Z" fill="white"/>
</g>
<path fill-rule="evenodd" clip-rule="evenodd" d="M93.9133 87.9288H132.09V135.649H93.9133V87.9288Z" fill="url(#paint8_linear)"/>
<mask id="mask0" mask-type="alpha" maskUnits="userSpaceOnUse" x="93" y="87" width="40" height="49">
<path fill-rule="evenodd" clip-rule="evenodd" d="M93.9133 87.9288H132.09V135.649H93.9133V87.9288Z" fill="white"/>
</mask>
<g mask="url(#mask0)">
</g>
<path fill-rule="evenodd" clip-rule="evenodd" d="M138.566 120.617C138.566 119.883 139.161 119.288 139.895 119.288H167.142C167.876 119.288 168.471 119.883 168.471 120.617V126.466C168.471 127.2 167.876 127.795 167.142 127.795H139.895C139.161 127.795 138.566 127.2 138.566 126.466V120.617Z" fill="url(#paint9_linear)"/>
<path fill-rule="evenodd" clip-rule="evenodd" d="M145.49 123.52C145.49 122.882 146.007 122.365 146.644 122.365H160.493C161.13 122.365 161.647 122.882 161.647 123.52C161.647 124.157 161.13 124.674 160.493 124.674H146.644C146.007 124.674 145.49 124.157 145.49 123.52Z" fill="white"/>
<path fill-rule="evenodd" clip-rule="evenodd" d="M140.205 113.713L139.636 113.989C139.473 114.068 139.288 113.928 139.322 113.749L139.425 113.192L139.003 112.812C138.863 112.686 138.935 112.453 139.122 112.428L139.723 112.348L140.009 111.813C140.093 111.657 140.316 111.657 140.4 111.813L140.686 112.348L141.287 112.428C141.475 112.453 141.546 112.686 141.406 112.812L140.984 113.192L141.087 113.749C141.121 113.928 140.937 114.068 140.773 113.989L140.205 113.713Z" fill="#E0E0E0"/>
<path fill-rule="evenodd" clip-rule="evenodd" d="M143.809 113.713L143.241 113.989C143.077 114.068 142.893 113.928 142.926 113.749L143.03 113.192L142.608 112.812C142.467 112.686 142.539 112.453 142.726 112.428L143.328 112.348L143.614 111.813C143.697 111.657 143.921 111.657 144.004 111.813L144.291 112.348L144.892 112.428C145.079 112.453 145.151 112.686 145.011 112.812L144.588 113.192L144.692 113.749C144.725 113.928 144.541 114.068 144.378 113.989L143.809 113.713Z" fill="#E0E0E0"/>
<path fill-rule="evenodd" clip-rule="evenodd" d="M147.414 113.713L146.845 113.989C146.682 114.068 146.498 113.928 146.531 113.749L146.635 113.192L146.212 112.812C146.072 112.686 146.144 112.453 146.331 112.428L146.932 112.348L147.219 111.813C147.302 111.657 147.526 111.657 147.609 111.813L147.895 112.348L148.497 112.428C148.684 112.453 148.756 112.686 148.615 112.812L148.193 113.192L148.297 113.749C148.33 113.928 148.146 114.068 147.982 113.989L147.414 113.713Z" fill="#E0E0E0"/>
<path fill-rule="evenodd" clip-rule="evenodd" d="M151.018 113.713L150.45 113.989C150.286 114.068 150.102 113.928 150.136 113.749L150.239 113.192L149.817 112.812C149.677 112.686 149.748 112.453 149.936 112.428L150.537 112.348L150.823 111.813C150.907 111.657 151.13 111.657 151.214 111.813L151.5 112.348L152.101 112.428C152.288 112.453 152.36 112.686 152.22 112.812L151.798 113.192L151.901 113.749C151.935 113.928 151.75 114.068 151.587 113.989L151.018 113.713Z" fill="#E0E0E0"/>
<path fill-rule="evenodd" clip-rule="evenodd" d="M154.623 113.713L154.055 113.989C153.891 114.068 153.707 113.928 153.74 113.749L153.844 113.192L153.422 112.812C153.281 112.686 153.353 112.453 153.54 112.428L154.142 112.348L154.428 111.813C154.511 111.657 154.735 111.657 154.818 111.813L155.105 112.348L155.706 112.428C155.893 112.453 155.965 112.686 155.824 112.812L155.402 113.192L155.506 113.749C155.539 113.928 155.355 114.068 155.192 113.989L154.623 113.713Z" fill="#E0E0E0"/>
<path fill-rule="evenodd" clip-rule="evenodd" d="M138.537 97.5459C138.537 96.0588 139.742 94.8531 141.23 94.8531H178.159C179.647 94.8531 180.852 96.0588 180.852 97.5459C180.852 99.0331 179.647 100.239 178.159 100.239H141.23C139.742 100.239 138.537 99.0331 138.537 97.5459Z" fill="#CFCFCF"/>
<path fill-rule="evenodd" clip-rule="evenodd" d="M138.537 106.394C138.537 105.544 139.226 104.855 140.076 104.855H160.849C161.698 104.855 162.387 105.544 162.387 106.394C162.387 107.244 161.698 107.932 160.849 107.932H140.076C139.226 107.932 138.537 107.244 138.537 106.394Z" fill="#CFCFCF"/>
<path fill-rule="evenodd" clip-rule="evenodd" d="M157.771 112.933C157.771 112.296 158.288 111.779 158.925 111.779H165.85C166.487 111.779 167.004 112.296 167.004 112.933C167.004 113.571 166.487 114.087 165.85 114.087H158.925C158.288 114.087 157.771 113.571 157.771 112.933Z" fill="#CFCFCF"/>
<g filter="url(#filter1_b)">
<path fill-rule="evenodd" clip-rule="evenodd" d="M96.9811 95.2574C96.9811 93.7641 96.9811 93.0174 97.241 92.4344C97.5424 91.7581 98.0834 91.2171 98.7597 90.9156C99.3427 90.6558 100.089 90.6558 101.583 90.6558H106.696C108.189 90.6558 108.936 90.6558 109.519 90.9156C110.195 91.2171 110.736 91.7581 111.037 92.4344C111.297 93.0174 111.297 93.7641 111.297 95.2574C111.297 96.7507 111.297 97.4973 111.037 98.0804C110.736 98.7567 110.195 99.2977 109.519 99.5991C108.936 99.859 108.189 99.859 106.696 99.859H101.583C100.089 99.859 99.3427 99.859 98.7597 99.5991C98.0834 99.2977 97.5424 98.7567 97.241 98.0804C96.9811 97.4973 96.9811 96.7507 96.9811 95.2574Z" fill="url(#paint10_linear)" fill-opacity="0.5"/>
</g>
<path d="M96.1221 101.911V100.351C98.0271 100.126 99.0171 98.8358 99.0171 97.5008C99.0171 96.1508 98.0121 95.0408 96.3471 94.7108L96.1221 94.6658V91.5908C97.0371 91.8458 97.4871 92.6258 97.5771 93.1958L98.9271 92.7008C98.6871 91.7258 97.9671 90.4958 96.1221 90.2558V88.6658H94.9521V90.2408C93.2721 90.4508 92.0871 91.6658 92.0871 93.0908C92.0871 94.5608 93.0471 95.5058 94.5771 95.8208L94.9521 95.8958V99.0308C93.7671 98.8208 93.1971 97.8908 93.1071 96.9308L91.6821 97.3808C91.8471 98.7008 92.8671 100.141 94.9521 100.351V101.911H96.1221ZM97.5471 97.5758C97.5471 98.2658 97.0971 98.8508 96.1221 99.0308V96.1358C97.0971 96.3608 97.5471 96.9458 97.5471 97.5758ZM93.5721 93.0308C93.5721 92.2958 94.0821 91.7108 94.9521 91.5458V94.3958C93.9321 94.2008 93.5721 93.6608 93.5721 93.0308ZM103.082 95.6408C103.337 95.5508 103.637 95.4908 103.937 95.4908C104.897 95.4908 105.917 96.0308 105.917 97.3058C105.917 98.2808 105.197 99.1058 103.862 99.1058C102.692 99.1058 101.762 98.2958 101.702 97.0058L100.262 97.3358C100.352 98.9258 101.627 100.396 103.877 100.396C106.142 100.396 107.402 98.9108 107.402 97.2758C107.402 95.2808 105.827 94.3208 104.402 94.3208L107.177 91.7558V90.4358H100.577V91.7858H105.227L102.362 94.4258L103.082 95.6408ZM110.203 95.2958C110.203 93.8108 110.473 92.7608 111.058 92.1458C111.433 91.7558 111.913 91.5158 112.603 91.5158C113.293 91.5158 113.773 91.7558 114.148 92.1458C114.733 92.7608 115.003 93.8108 115.003 95.2958C115.003 96.7808 114.733 97.8308 114.148 98.4458C113.773 98.8358 113.293 99.0758 112.603 99.0758C111.913 99.0758 111.433 98.8358 111.058 98.4458C110.473 97.8308 110.203 96.7808 110.203 95.2958ZM108.748 95.2958C108.748 96.6308 108.973 97.8608 109.618 98.8208C110.248 99.7658 111.223 100.381 112.603 100.381C113.983 100.381 114.958 99.7658 115.588 98.8208C116.233 97.8608 116.458 96.6308 116.458 95.2958C116.458 93.9608 116.233 92.7308 115.588 91.7708C114.958 90.8258 113.983 90.2108 112.603 90.2108C111.223 90.2108 110.248 90.8258 109.618 91.7708C108.973 92.7308 108.748 93.9608 108.748 95.2958Z" fill="white"/>
<path opacity="0.5" fill-rule="evenodd" clip-rule="evenodd" d="M93.9133 170.174C93.9133 168.517 95.2565 167.174 96.9133 167.174H121.454C123.111 167.174 124.454 168.517 124.454 170.174V202.047C124.454 203.704 123.111 205.047 121.454 205.047H96.9133C95.2565 205.047 93.9133 203.704 93.9133 202.047V170.174Z" fill="#CFCFCF"/>
<path fill-rule="evenodd" clip-rule="evenodd" d="M96.2214 210.644C96.2214 210.006 96.7381 209.49 97.3755 209.49H108.916C109.553 209.49 110.07 210.006 110.07 210.644C110.07 211.281 109.553 211.798 108.916 211.798H97.3755C96.7381 211.798 96.2214 211.281 96.2214 210.644Z" fill="#E7E7E7"/>
<path fill-rule="evenodd" clip-rule="evenodd" d="M133.151 210.644C133.151 210.006 133.668 209.49 134.305 209.49H145.846C146.483 209.49 147 210.006 147 210.644C147 211.281 146.483 211.798 145.846 211.798H134.305C133.668 211.798 133.151 211.281 133.151 210.644Z" fill="#E7E7E7"/>
<path fill-rule="evenodd" clip-rule="evenodd" d="M170.081 210.644C170.081 210.006 170.598 209.49 171.235 209.49H182.776C183.413 209.49 183.93 210.006 183.93 210.644C183.93 211.281 183.413 211.798 182.776 211.798H171.235C170.598 211.798 170.081 211.281 170.081 210.644Z" fill="#E7E7E7"/>
<g filter="url(#filter2_b)">
<path fill-rule="evenodd" clip-rule="evenodd" d="M96.3754 173.269C96.3754 172.663 96.3754 172.36 96.419 172.107C96.6347 170.856 97.6146 169.876 98.8657 169.66C99.1187 169.617 99.4216 169.617 100.027 169.617H104.176C104.782 169.617 105.085 169.617 105.338 169.66C106.589 169.876 107.569 170.856 107.785 172.107C107.828 172.36 107.828 172.663 107.828 173.269C107.828 173.875 107.828 174.177 107.785 174.43C107.569 175.682 106.589 176.661 105.338 176.877C105.085 176.921 104.782 176.921 104.176 176.921H100.027C99.4216 176.921 99.1187 176.921 98.8657 176.877C97.6146 176.661 96.6347 175.682 96.419 174.43C96.3754 174.177 96.3754 173.875 96.3754 173.269Z" fill="url(#paint11_linear)" fill-opacity="0.5"/>
</g>
<path d="M94.1983 179.872V178.312C96.1033 178.087 97.0933 176.797 97.0933 175.462C97.0933 174.112 96.0883 173.002 94.4233 172.672L94.1983 172.627V169.552C95.1133 169.807 95.5633 170.587 95.6533 171.157L97.0033 170.662C96.7633 169.687 96.0433 168.457 94.1983 168.217V166.627H93.0283V168.202C91.3483 168.412 90.1633 169.627 90.1633 171.052C90.1633 172.522 91.1233 173.467 92.6533 173.782L93.0283 173.857V176.992C91.8433 176.782 91.2733 175.852 91.1833 174.892L89.7583 175.342C89.9233 176.662 90.9433 178.102 93.0283 178.312V179.872H94.1983ZM95.6233 175.537C95.6233 176.227 95.1733 176.812 94.1983 176.992V174.097C95.1733 174.322 95.6233 174.907 95.6233 175.537ZM91.6483 170.992C91.6483 170.257 92.1583 169.672 93.0283 169.507V172.357C92.0083 172.162 91.6483 171.622 91.6483 170.992ZM101.158 173.602C101.413 173.512 101.713 173.452 102.013 173.452C102.973 173.452 103.993 173.992 103.993 175.267C103.993 176.242 103.273 177.067 101.938 177.067C100.768 177.067 99.8377 176.257 99.7777 174.967L98.3377 175.297C98.4277 176.887 99.7027 178.357 101.953 178.357C104.218 178.357 105.478 176.872 105.478 175.237C105.478 173.242 103.903 172.282 102.478 172.282L105.253 169.717V168.397H98.6527V169.747H103.303L100.438 172.387L101.158 173.602ZM108.279 173.257C108.279 171.772 108.549 170.722 109.134 170.107C109.509 169.717 109.989 169.477 110.679 169.477C111.369 169.477 111.849 169.717 112.224 170.107C112.809 170.722 113.079 171.772 113.079 173.257C113.079 174.742 112.809 175.792 112.224 176.407C111.849 176.797 111.369 177.037 110.679 177.037C109.989 177.037 109.509 176.797 109.134 176.407C108.549 175.792 108.279 174.742 108.279 173.257ZM106.824 173.257C106.824 174.592 107.049 175.822 107.694 176.782C108.324 177.727 109.299 178.342 110.679 178.342C112.059 178.342 113.034 177.727 113.664 176.782C114.309 175.822 114.534 174.592 114.534 173.257C114.534 171.922 114.309 170.692 113.664 169.732C113.034 168.787 112.059 168.172 110.679 168.172C109.299 168.172 108.324 168.787 107.694 169.732C107.049 170.692 106.824 171.922 106.824 173.257Z" fill="white"/>
<path opacity="0.5" fill-rule="evenodd" clip-rule="evenodd" d="M93.9133 244.034C93.9133 242.377 95.2565 241.034 96.9133 241.034H117.841C119.498 241.034 120.841 242.377 120.841 244.034V258.037C120.841 259.694 119.498 261.037 117.841 261.037H96.9133C95.2565 261.037 93.9133 259.694 93.9133 258.037V244.034Z" fill="#CFCFCF"/>
<path fill-rule="evenodd" clip-rule="evenodd" d="M96.9908 266.038C96.9908 265.401 97.5075 264.884 98.1449 264.884H109.685C110.323 264.884 110.84 265.401 110.84 266.038C110.84 266.676 110.323 267.192 109.685 267.192H98.1449C97.5075 267.192 96.9908 266.676 96.9908 266.038Z" fill="#E7E7E7"/>
<path fill-rule="evenodd" clip-rule="evenodd" d="M129.304 266.038C129.304 265.401 129.821 264.884 130.459 264.884H141.999C142.636 264.884 143.153 265.401 143.153 266.038C143.153 266.676 142.636 267.192 141.999 267.192H130.459C129.821 267.192 129.304 266.676 129.304 266.038Z" fill="#E7E7E7"/>
<path fill-rule="evenodd" clip-rule="evenodd" d="M160.849 266.038C160.849 265.401 161.365 264.884 162.003 264.884H173.543C174.181 264.884 174.697 265.401 174.697 266.038C174.697 266.676 174.181 267.192 173.543 267.192H162.003C161.365 267.192 160.849 266.676 160.849 266.038Z" fill="#E7E7E7"/>
<path opacity="0.5" fill-rule="evenodd" clip-rule="evenodd" d="M126.227 244.034C126.227 242.377 127.57 241.034 129.227 241.034H150.155C151.812 241.034 153.155 242.377 153.155 244.034V258.037C153.155 259.694 151.812 261.037 150.155 261.037H129.227C127.57 261.037 126.227 259.694 126.227 258.037V244.034Z" fill="#CFCFCF"/>
<mask id="mask1" mask-type="alpha" maskUnits="userSpaceOnUse" x="126" y="241" width="28" height="21">
<path fill-rule="evenodd" clip-rule="evenodd" d="M126.227 244.034C126.227 242.377 127.57 241.034 129.227 241.034H150.155C151.812 241.034 153.155 242.377 153.155 244.034V258.037C153.155 259.694 151.812 261.037 150.155 261.037H129.227C127.57 261.037 126.227 259.694 126.227 258.037V244.034Z" fill="white"/>
</mask>
<g mask="url(#mask1)">
</g>
<path opacity="0.5" fill-rule="evenodd" clip-rule="evenodd" d="M157.771 244.034C157.771 242.377 159.114 241.034 160.771 241.034H181.699C183.356 241.034 184.699 242.377 184.699 244.034V258.037C184.699 259.694 183.356 261.037 181.699 261.037H160.771C159.114 261.037 157.771 259.694 157.771 258.037V244.034Z" fill="#CFCFCF"/>
<mask id="mask2" mask-type="alpha" maskUnits="userSpaceOnUse" x="157" y="241" width="28" height="21">
<path fill-rule="evenodd" clip-rule="evenodd" d="M157.771 244.034C157.771 242.377 159.114 241.034 160.771 241.034H181.699C183.356 241.034 184.699 242.377 184.699 244.034V258.037C184.699 259.694 183.356 261.037 181.699 261.037H160.771C159.114 261.037 157.771 259.694 157.771 258.037V244.034Z" fill="white"/>
</mask>
<g mask="url(#mask2)">
</g>
<path opacity="0.5" fill-rule="evenodd" clip-rule="evenodd" d="M130.843 170.174C130.843 168.517 132.186 167.174 133.843 167.174H158.384C160.041 167.174 161.384 168.517 161.384 170.174V202.047C161.384 203.704 160.041 205.047 158.384 205.047H133.843C132.186 205.047 130.843 203.704 130.843 202.047V170.174Z" fill="#CFCFCF"/>
<g filter="url(#filter3_b)">
<path fill-rule="evenodd" clip-rule="evenodd" d="M133.305 173.269C133.305 172.663 133.305 172.36 133.349 172.107C133.564 170.856 134.544 169.876 135.796 169.66C136.048 169.617 136.351 169.617 136.957 169.617H141.106C141.712 169.617 142.015 169.617 142.268 169.66C143.519 169.876 144.499 170.856 144.714 172.107C144.758 172.36 144.758 172.663 144.758 173.269C144.758 173.875 144.758 174.177 144.714 174.43C144.499 175.682 143.519 176.661 142.268 176.877C142.015 176.921 141.712 176.921 141.106 176.921H136.957C136.351 176.921 136.048 176.921 135.796 176.877C134.544 176.661 133.564 175.682 133.349 174.43C133.305 174.177 133.305 173.875 133.305 173.269Z" fill="url(#paint12_linear)" fill-opacity="0.5"/>
</g>
<path d="M131.128 179.872V178.312C133.033 178.087 134.023 176.797 134.023 175.462C134.023 174.112 133.018 173.002 131.353 172.672L131.128 172.627V169.552C132.043 169.807 132.493 170.587 132.583 171.157L133.933 170.662C133.693 169.687 132.973 168.457 131.128 168.217V166.627H129.958V168.202C128.278 168.412 127.093 169.627 127.093 171.052C127.093 172.522 128.053 173.467 129.583 173.782L129.958 173.857V176.992C128.773 176.782 128.203 175.852 128.113 174.892L126.688 175.342C126.853 176.662 127.873 178.102 129.958 178.312V179.872H131.128ZM132.553 175.537C132.553 176.227 132.103 176.812 131.128 176.992V174.097C132.103 174.322 132.553 174.907 132.553 175.537ZM128.578 170.992C128.578 170.257 129.088 169.672 129.958 169.507V172.357C128.938 172.162 128.578 171.622 128.578 170.992ZM138.088 173.602C138.343 173.512 138.643 173.452 138.943 173.452C139.903 173.452 140.923 173.992 140.923 175.267C140.923 176.242 140.203 177.067 138.868 177.067C137.698 177.067 136.768 176.257 136.708 174.967L135.268 175.297C135.358 176.887 136.633 178.357 138.883 178.357C141.148 178.357 142.408 176.872 142.408 175.237C142.408 173.242 140.833 172.282 139.408 172.282L142.183 169.717V168.397H135.583V169.747H140.233L137.368 172.387L138.088 173.602ZM145.209 173.257C145.209 171.772 145.479 170.722 146.064 170.107C146.439 169.717 146.919 169.477 147.609 169.477C148.299 169.477 148.779 169.717 149.154 170.107C149.739 170.722 150.009 171.772 150.009 173.257C150.009 174.742 149.739 175.792 149.154 176.407C148.779 176.797 148.299 177.037 147.609 177.037C146.919 177.037 146.439 176.797 146.064 176.407C145.479 175.792 145.209 174.742 145.209 173.257ZM143.754 173.257C143.754 174.592 143.979 175.822 144.624 176.782C145.254 177.727 146.229 178.342 147.609 178.342C148.989 178.342 149.964 177.727 150.594 176.782C151.239 175.822 151.464 174.592 151.464 173.257C151.464 171.922 151.239 170.692 150.594 169.732C149.964 168.787 148.989 168.172 147.609 168.172C146.229 168.172 145.254 168.787 144.624 169.732C143.979 170.692 143.754 171.922 143.754 173.257Z" fill="white"/>
<path opacity="0.5" fill-rule="evenodd" clip-rule="evenodd" d="M167.004 170.174C167.004 168.517 168.347 167.174 170.004 167.174H194.545C196.202 167.174 197.545 168.517 197.545 170.174V202.047C197.545 203.704 196.202 205.047 194.545 205.047H170.004C168.347 205.047 167.004 203.704 167.004 202.047V170.174Z" fill="#CFCFCF"/>
<g filter="url(#filter4_b)">
<path fill-rule="evenodd" clip-rule="evenodd" d="M169.466 173.269C169.466 172.663 169.466 172.36 169.509 172.107C169.725 170.856 170.705 169.876 171.956 169.66C172.209 169.617 172.512 169.617 173.118 169.617H177.267C177.872 169.617 178.175 169.617 178.428 169.66C179.679 169.876 180.659 170.856 180.875 172.107C180.919 172.36 180.919 172.663 180.919 173.269C180.919 173.875 180.919 174.177 180.875 174.43C180.659 175.682 179.679 176.661 178.428 176.877C178.175 176.921 177.872 176.921 177.267 176.921H173.118C172.512 176.921 172.209 176.921 171.956 176.877C170.705 176.661 169.725 175.682 169.509 174.43C169.466 174.177 169.466 173.875 169.466 173.269Z" fill="url(#paint13_linear)" fill-opacity="0.5"/>
</g>
<path d="M167.289 179.872V178.312C169.194 178.087 170.184 176.797 170.184 175.462C170.184 174.112 169.179 173.002 167.514 172.672L167.289 172.627V169.552C168.204 169.807 168.654 170.587 168.744 171.157L170.094 170.662C169.854 169.687 169.134 168.457 167.289 168.217V166.627H166.119V168.202C164.439 168.412 163.254 169.627 163.254 171.052C163.254 172.522 164.214 173.467 165.744 173.782L166.119 173.857V176.992C164.934 176.782 164.364 175.852 164.274 174.892L162.849 175.342C163.014 176.662 164.034 178.102 166.119 178.312V179.872H167.289ZM168.714 175.537C168.714 176.227 168.264 176.812 167.289 176.992V174.097C168.264 174.322 168.714 174.907 168.714 175.537ZM164.739 170.992C164.739 170.257 165.249 169.672 166.119 169.507V172.357C165.099 172.162 164.739 171.622 164.739 170.992ZM174.248 173.602C174.503 173.512 174.803 173.452 175.103 173.452C176.063 173.452 177.083 173.992 177.083 175.267C177.083 176.242 176.363 177.067 175.028 177.067C173.858 177.067 172.928 176.257 172.868 174.967L171.428 175.297C171.518 176.887 172.793 178.357 175.043 178.357C177.308 178.357 178.568 176.872 178.568 175.237C178.568 173.242 176.993 172.282 175.568 172.282L178.343 169.717V168.397H171.743V169.747H176.393L173.528 172.387L174.248 173.602ZM181.369 173.257C181.369 171.772 181.639 170.722 182.224 170.107C182.599 169.717 183.079 169.477 183.769 169.477C184.459 169.477 184.939 169.717 185.314 170.107C185.899 170.722 186.169 171.772 186.169 173.257C186.169 174.742 185.899 175.792 185.314 176.407C184.939 176.797 184.459 177.037 183.769 177.037C183.079 177.037 182.599 176.797 182.224 176.407C181.639 175.792 181.369 174.742 181.369 173.257ZM179.914 173.257C179.914 174.592 180.139 175.822 180.784 176.782C181.414 177.727 182.389 178.342 183.769 178.342C185.149 178.342 186.124 177.727 186.754 176.782C187.399 175.822 187.624 174.592 187.624 173.257C187.624 171.922 187.399 170.692 186.754 169.732C186.124 168.787 185.149 168.172 183.769 168.172C182.389 168.172 181.414 168.787 180.784 169.732C180.139 170.692 179.914 171.922 179.914 173.257Z" fill="white"/>
<path fill-rule="evenodd" clip-rule="evenodd" d="M130.074 51.7684H164.695L162.447 56.265C161.939 57.2813 160.9 57.9233 159.764 57.9233H135.005C133.869 57.9233 132.83 57.2813 132.322 56.265L130.074 51.7684Z" fill="#393939"/>
<path fill-rule="evenodd" clip-rule="evenodd" d="M174.697 281.81H263.944V229.493H174.697V281.81Z" fill="url(#paint14_linear)"/>
<path fill-rule="evenodd" clip-rule="evenodd" d="M174.697 281.81H200.856V229.493H174.697V281.81Z" fill="#BA7F4E"/>
<path fill-rule="evenodd" clip-rule="evenodd" d="M231.505 241.644L231.647 246.419H224.706V229.493H237.016V241.644L231.505 241.644Z" fill="#F5CE42"/>
<path fill-rule="evenodd" clip-rule="evenodd" d="M193.932 281.81H181.622V229.493H193.932V267.05V281.81Z" fill="#F5CE42"/>
<path fill-rule="evenodd" clip-rule="evenodd" d="M237.786 241.803L232.539 246.419L232.4 241.804L237.786 241.803Z" fill="#FBE497"/>
<path fill-rule="evenodd" clip-rule="evenodd" d="M239.324 274.886H257.789V261.807H239.324V274.886Z" fill="white"/>
<path fill-rule="evenodd" clip-rule="evenodd" d="M241.633 270.27H256.251V268.731H241.633V270.27Z" fill="#12171E"/>
<path fill-rule="evenodd" clip-rule="evenodd" d="M250.865 272.578H256.251V271.039H250.865V272.578Z" fill="#12171E"/>
<path fill-rule="evenodd" clip-rule="evenodd" d="M209.319 229.493H245.479V197.949H209.319V229.493Z" fill="url(#paint15_linear)"/>
<path fill-rule="evenodd" clip-rule="evenodd" d="M203.933 201.026H250.865V193.333H203.933V201.026Z" fill="url(#paint16_linear)"/>
<path opacity="0.692935" fill-rule="evenodd" clip-rule="evenodd" d="M240.863 229.493H245.479V201.026H240.863V229.493Z" fill="#8EA2FF"/>
<path opacity="0.491565" fill-rule="evenodd" clip-rule="evenodd" d="M209.319 229.493H222.398V197.949H209.319V229.493Z" fill="#8EA2FF"/>
<path fill-rule="evenodd" clip-rule="evenodd" d="M203.933 201.026H213.166V193.333H203.933V201.026Z" fill="#8EA2FF"/>
<path fill-rule="evenodd" clip-rule="evenodd" d="M247.018 201.026H250.865V193.333H247.018V201.026Z" fill="#8EA2FF"/>
<path fill-rule="evenodd" clip-rule="evenodd" d="M219.321 201.026H235.478V193.333H219.321V201.026Z" fill="url(#paint17_linear)"/>
<path fill-rule="evenodd" clip-rule="evenodd" d="M209.319 205.643H245.479V201.026H209.319V205.643Z" fill="url(#paint18_linear)"/>
<path fill-rule="evenodd" clip-rule="evenodd" d="M222.693 190.979L221.339 191.045C215.739 191.045 213.634 185.441 218.506 185.129C223.376 184.817 222.693 190.979 222.693 190.979ZM217.461 181.817C207.023 182.485 211.534 194.495 223.536 194.495L226.435 194.352C226.435 194.352 227.9 181.148 217.461 181.817Z" fill="url(#paint19_linear)"/>
<path fill-rule="evenodd" clip-rule="evenodd" d="M234.246 185.13C239.116 185.442 237.011 191.046 231.411 191.046L230.058 190.979C230.058 190.979 229.375 184.817 234.246 185.13ZM226.315 194.353L229.215 194.495C241.217 194.495 245.728 182.486 235.289 181.817C224.851 181.148 226.315 194.353 226.315 194.353Z" fill="url(#paint20_linear)"/>
<defs>
<filter id="filter0_d" x="83.9133" y="81.9288" width="127.712" height="67.7205" filterUnits="userSpaceOnUse" color-interpolation-filters="sRGB">
<feFlood flood-opacity="0" result="BackgroundImageFix"/>
<feColorMatrix in="SourceAlpha" type="matrix" values="0 0 0 0 0 0 0 0 0 0 0 0 0 0 0 0 0 0 127 0"/>
<feOffset dy="4"/>
<feGaussianBlur stdDeviation="5"/>
<feColorMatrix type="matrix" values="0 0 0 0 0 0 0 0 0 0 0 0 0 0 0 0 0 0 0.04 0"/>
<feBlend mode="normal" in2="BackgroundImageFix" result="effect1_dropShadow"/>
<feBlend mode="normal" in="SourceGraphic" in2="effect1_dropShadow" result="shape"/>
</filter>
<filter id="filter1_b" x="69.7983" y="63.4729" width="68.6818" height="63.5689" filterUnits="userSpaceOnUse" color-interpolation-filters="sRGB">
<feFlood flood-opacity="0" result="BackgroundImageFix"/>
<feGaussianBlur in="BackgroundImage" stdDeviation="13.5914"/>
<feComposite in2="SourceAlpha" operator="in" result="effect1_backgroundBlur"/>
<feBlend mode="normal" in="SourceGraphic" in2="effect1_backgroundBlur" result="shape"/>
</filter>
<filter id="filter2_b" x="69.1925" y="142.434" width="65.8186" height="61.6698" filterUnits="userSpaceOnUse" color-interpolation-filters="sRGB">
<feFlood flood-opacity="0" result="BackgroundImageFix"/>
<feGaussianBlur in="BackgroundImage" stdDeviation="13.5914"/>
<feComposite in2="SourceAlpha" operator="in" result="effect1_backgroundBlur"/>
<feBlend mode="normal" in="SourceGraphic" in2="effect1_backgroundBlur" result="shape"/>
</filter>
<filter id="filter3_b" x="106.122" y="142.434" width="65.8186" height="61.6698" filterUnits="userSpaceOnUse" color-interpolation-filters="sRGB">
<feFlood flood-opacity="0" result="BackgroundImageFix"/>
<feGaussianBlur in="BackgroundImage" stdDeviation="13.5914"/>
<feComposite in2="SourceAlpha" operator="in" result="effect1_backgroundBlur"/>
<feBlend mode="normal" in="SourceGraphic" in2="effect1_backgroundBlur" result="shape"/>
</filter>
<filter id="filter4_b" x="142.283" y="142.434" width="65.8186" height="61.6698" filterUnits="userSpaceOnUse" color-interpolation-filters="sRGB">
<feFlood flood-opacity="0" result="BackgroundImageFix"/>
<feGaussianBlur in="BackgroundImage" stdDeviation="13.5914"/>
<feComposite in2="SourceAlpha" operator="in" result="effect1_backgroundBlur"/>
<feBlend mode="normal" in="SourceGraphic" in2="effect1_backgroundBlur" result="shape"/>
</filter>
<linearGradient id="paint0_linear" x1="206.594" y1="103.656" x2="206.594" y2="140.842" gradientUnits="userSpaceOnUse">
<stop stop-color="#F3F3F3"/>
<stop offset="1" stop-color="#EFEFEF" stop-opacity="0.01"/>
</linearGradient>
<linearGradient id="paint1_linear" x1="3.2128" y1="27.9558" x2="3.2128" y2="55.3838" gradientUnits="userSpaceOnUse">
<stop stop-color="#F3F3F3"/>
<stop offset="1" stop-color="#EFEFEF" stop-opacity="0.01"/>
</linearGradient>
<linearGradient id="paint2_linear" x1="190.795" y1="-21.1483" x2="190.795" y2="37.674" gradientUnits="userSpaceOnUse">
<stop stop-color="#F3F3F3"/>
<stop offset="1" stop-color="#EFEFEF" stop-opacity="0.01"/>
</linearGradient>
<linearGradient id="paint3_linear" x1="31.0975" y1="45.7727" x2="31.0975" y2="100.399" gradientUnits="userSpaceOnUse">
<stop stop-color="#F3F3F3"/>
<stop offset="1" stop-color="#EFEFEF" stop-opacity="0.01"/>
</linearGradient>
<linearGradient id="paint4_linear" x1="-21.6196" y1="235.639" x2="3.6013" y2="320.788" gradientUnits="userSpaceOnUse">
<stop stop-color="#ECCCA4"/>
<stop offset="1" stop-color="#D59E6B"/>
</linearGradient>
<linearGradient id="paint5_linear" x1="0.0500488" y1="89.4675" x2="0.0500488" y2="277.964" gradientUnits="userSpaceOnUse">
<stop stop-color="#F3F3F3"/>
<stop offset="1" stop-color="#EFEFEF" stop-opacity="0.01"/>
</linearGradient>
<linearGradient id="paint6_linear" x1="46.5715" y1="180.029" x2="46.5715" y2="209.118" gradientUnits="userSpaceOnUse">
<stop stop-color="#FFD953"/>
<stop offset="1" stop-color="#FFB129"/>
</linearGradient>
<linearGradient id="paint7_linear" x1="43.7669" y1="205.83" x2="43.7669" y2="258.068" gradientUnits="userSpaceOnUse">
<stop stop-color="#8EA2FF"/>
<stop offset="1" stop-color="#557AC7"/>
</linearGradient>
<linearGradient id="paint8_linear" x1="51.0909" y1="103.691" x2="117.971" y2="208.472" gradientUnits="userSpaceOnUse">
<stop stop-color="#8EA2FF"/>
<stop offset="1" stop-color="#557AC7"/>
</linearGradient>
<linearGradient id="paint9_linear" x1="105.022" y1="122.098" x2="108.762" y2="147.844" gradientUnits="userSpaceOnUse">
<stop stop-color="#8EA2FF"/>
<stop offset="1" stop-color="#557AC7"/>
</linearGradient>
<linearGradient id="paint10_linear" x1="87.3254" y1="95.6474" x2="95.187" y2="113.765" gradientUnits="userSpaceOnUse">
<stop stop-color="#8EA2FF"/>
<stop offset="1" stop-color="#557AC7"/>
</linearGradient>
<linearGradient id="paint11_linear" x1="88.6508" y1="173.578" x2="94.8563" y2="187.993" gradientUnits="userSpaceOnUse">
<stop stop-color="#8EA2FF"/>
<stop offset="1" stop-color="#557AC7"/>
</linearGradient>
<linearGradient id="paint12_linear" x1="125.581" y1="173.578" x2="131.786" y2="187.993" gradientUnits="userSpaceOnUse">
<stop stop-color="#8EA2FF"/>
<stop offset="1" stop-color="#557AC7"/>
</linearGradient>
<linearGradient id="paint13_linear" x1="161.741" y1="173.578" x2="167.947" y2="187.993" gradientUnits="userSpaceOnUse">
<stop stop-color="#8EA2FF"/>
<stop offset="1" stop-color="#557AC7"/>
</linearGradient>
<linearGradient id="paint14_linear" x1="147.925" y1="247.377" x2="172.721" y2="323.641" gradientUnits="userSpaceOnUse">
<stop stop-color="#ECCCA4"/>
<stop offset="1" stop-color="#D59E6B"/>
</linearGradient>
<linearGradient id="paint15_linear" x1="200.919" y1="207.906" x2="200.919" y2="242.794" gradientUnits="userSpaceOnUse">
<stop stop-color="#8EA2FF"/>
<stop offset="1" stop-color="#557AC7"/>
</linearGradient>
<linearGradient id="paint16_linear" x1="174.593" y1="196.806" x2="175.925" y2="216.209" gradientUnits="userSpaceOnUse">
<stop stop-color="#8EA2FF"/>
<stop offset="1" stop-color="#557AC7"/>
<stop offset="1" stop-color="#567BC8"/>
</linearGradient>
<linearGradient id="paint17_linear" x1="217.697" y1="193.333" x2="217.697" y2="202.573" gradientUnits="userSpaceOnUse">
<stop stop-color="#FFD953"/>
<stop offset="1" stop-color="#FFB129"/>
</linearGradient>
<linearGradient id="paint18_linear" x1="39.0387" y1="163.06" x2="39.4526" y2="212.799" gradientUnits="userSpaceOnUse">
<stop stop-color="#8EA2FF"/>
<stop offset="1" stop-color="#557AC7"/>
</linearGradient>
<linearGradient id="paint19_linear" x1="210.132" y1="181.792" x2="210.132" y2="197.048" gradientUnits="userSpaceOnUse">
<stop stop-color="#FFD953"/>
<stop offset="1" stop-color="#FFB129"/>
</linearGradient>
<linearGradient id="paint20_linear" x1="224.75" y1="181.792" x2="224.75" y2="197.049" gradientUnits="userSpaceOnUse">
<stop stop-color="#FFD953"/>
<stop offset="1" stop-color="#FFB129"/>
</linearGradient>
</defs>
</svg>
