<svg width="54" height="10" viewBox="0 0 54 10" fill="none" xmlns="http://www.w3.org/2000/svg">
<path fill-rule="evenodd" clip-rule="evenodd" d="M5 7.5L2.95781 8.57364C2.591 8.76649 2.16228 8.45501 2.23234 8.04655L2.62236 5.77254L0.970192 4.16208C0.673434 3.87281 0.837189 3.36882 1.2473 3.30923L3.53054 2.97746L4.55163 0.908493C4.73504 0.53687 5.26496 0.53687 5.44837 0.908493L6.46946 2.97746L8.7527 3.30923C9.16281 3.36882 9.32657 3.87281 9.02981 4.16208L7.37764 5.77254L7.76766 8.04655C7.83772 8.45501 7.409 8.76649 7.04219 8.57364L5 7.5Z" fill="#FFBA49"/>
<path fill-rule="evenodd" clip-rule="evenodd" d="M16 7.5L13.9578 8.57364C13.591 8.76649 13.1623 8.45501 13.2323 8.04655L13.6224 5.77254L11.9702 4.16208C11.6734 3.87281 11.8372 3.36882 12.2473 3.30923L14.5305 2.97746L15.5516 0.908493C15.735 0.53687 16.265 0.53687 16.4484 0.908493L17.4695 2.97746L19.7527 3.30923C20.1628 3.36882 20.3266 3.87281 20.0298 4.16208L18.3776 5.77254L18.7677 8.04655C18.8377 8.45501 18.409 8.76649 18.0422 8.57364L16 7.5Z" fill="#FFBA49"/>
<path fill-rule="evenodd" clip-rule="evenodd" d="M27 7.5L24.9578 8.57364C24.591 8.76649 24.1623 8.45501 24.2323 8.04655L24.6224 5.77254L22.9702 4.16208C22.6734 3.87281 22.8372 3.36882 23.2473 3.30923L25.5305 2.97746L26.5516 0.908493C26.735 0.53687 27.265 0.53687 27.4484 0.908493L28.4695 2.97746L30.7527 3.30923C31.1628 3.36882 31.3266 3.87281 31.0298 4.16208L29.3776 5.77254L29.7677 8.04655C29.8377 8.45501 29.409 8.76649 29.0422 8.57364L27 7.5Z" fill="#FFBA49"/>
<path fill-rule="evenodd" clip-rule="evenodd" d="M38 7.5L35.9578 8.57364C35.591 8.76649 35.1623 8.45501 35.2323 8.04655L35.6224 5.77254L33.9702 4.16208C33.6734 3.87281 33.8372 3.36882 34.2473 3.30923L36.5305 2.97746L37.5516 0.908493C37.735 0.53687 38.265 0.53687 38.4484 0.908493L39.4695 2.97746L41.7527 3.30923C42.1628 3.36882 42.3266 3.87281 42.0298 4.16208L40.3776 5.77254L40.7677 8.04655C40.8377 8.45501 40.409 8.76649 40.0422 8.57364L38 7.5Z" fill="#FFBA49"/>
<path fill-rule="evenodd" clip-rule="evenodd" d="M49 7.5L46.9578 8.57364C46.591 8.76649 46.1623 8.45501 46.2323 8.04655L46.6224 5.77254L44.9702 4.16208C44.6734 3.87281 44.8372 3.36882 45.2473 3.30923L47.5305 2.97746L48.5516 0.908493C48.735 0.53687 49.265 0.53687 49.4484 0.908493L50.4695 2.97746L52.7527 3.30923C53.1628 3.36882 53.3266 3.87281 53.0298 4.16208L51.3776 5.77254L51.7677 8.04655C51.8377 8.45501 51.409 8.76649 51.0422 8.57364L49 7.5Z" fill="#FFBA49"/>
</svg>
